<?xml version="1.0" standalone="no"?>
<!DOCTYPE svg PUBLIC "-//W3C//DTD SVG 20010904//EN"
 "http://www.w3.org/TR/2001/REC-SVG-20010904/DTD/svg10.dtd">
<svg version="1.0" xmlns="http://www.w3.org/2000/svg"
 width="206.000000pt" height="172.000000pt" viewBox="0 0 206.000000 172.000000"
 preserveAspectRatio="xMidYMid meet">
<metadata>
Created by potrace 1.10, written by Peter Selinger 2001-2011
</metadata>
<g transform="translate(0.000000,172.000000) scale(0.100000,-0.100000)"
fill="#000000" stroke="none">
<path d="M538 1565 c-2 -3 -24 -7 -47 -10 -109 -14 -233 -110 -270 -210 -40
-106 -17 -279 42 -320 12 -8 18 -15 13 -15 -5 0 -2 -8 6 -17 26 -30 25 -44 -3
-74 -15 -16 -37 -50 -49 -76 -110 -233 -33 -477 195 -614 22 -13 40 -22 40
-21 0 2 14 -2 30 -10 38 -16 276 -18 296 -2 8 6 35 18 60 27 44 14 48 14 75
-4 51 -33 162 -41 306 -20 49 7 85 17 82 22 -3 5 2 9 11 9 20 0 95 50 159 107
26 24 52 43 58 43 14 0 36 -60 39 -110 3 -47 17 -70 42 -70 27 0 36 50 43 261
3 118 11 220 16 226 6 7 25 13 42 13 36 0 56 15 56 42 0 31 -43 38 -226 38
-137 0 -181 -3 -204 -15 -17 -9 -30 -20 -30 -25 0 -15 61 -49 76 -43 8 3 21 0
29 -7 20 -17 21 -188 1 -254 -18 -59 -75 -116 -133 -135 -24 -8 -43 -17 -43
-20 0 -10 -152 5 -185 18 -51 20 -57 38 -29 82 13 22 21 39 18 39 -4 0 -1 7 6
16 8 8 15 51 18 95 5 90 -10 143 -62 219 -17 25 -30 48 -28 53 1 4 -4 7 -11 7
-7 0 -24 11 -38 24 -29 27 -162 114 -188 124 -9 3 -47 24 -86 47 -38 22 -83
47 -100 55 -51 24 -137 93 -167 134 -21 30 -28 50 -28 86 0 81 43 139 135 180
41 19 59 21 112 16 68 -7 134 -32 173 -65 58 -49 72 -67 106 -127 40 -72 58
-90 48 -47 -35 149 -167 260 -324 271 -79 5 -131 -8 -191 -47 -71 -48 -94 -91
-94 -175 0 -61 4 -77 28 -113 38 -55 120 -113 285 -201 180 -97 251 -143 307
-203 66 -70 90 -128 89 -214 -1 -93 -30 -158 -98 -223 -255 -242 -670 -103
-729 243 -20 117 22 252 106 342 l45 48 -36 31 c-52 44 -93 123 -99 193 -17
190 137 343 347 344 62 1 94 -6 180 -36 120 -42 153 -45 177 -17 10 11 20 20
23 20 3 0 3 -43 2 -96 -2 -53 -1 -117 4 -142 l7 -47 13 40 c7 22 13 67 13 100
l1 60 53 19 c131 47 262 24 350 -62 47 -46 87 -127 87 -176 0 -12 11 -33 24
-45 l24 -23 21 21 c20 20 21 32 21 176 0 146 -1 156 -22 177 l-21 21 -23 -26
c-12 -14 -23 -30 -25 -36 -3 -6 -26 -2 -59 9 -30 11 -50 20 -45 20 22 2 -42
23 -65 21 -19 -1 -21 1 -11 8 19 13 -123 25 -203 18 -72 -7 -87 -10 -103 -20
-27 -17 -148 -18 -193 -2 -120 43 -254 67 -272 50z m753 -71 c30 -9 89 -34
131 -56 42 -22 81 -37 87 -33 6 3 11 26 11 51 0 32 4 44 15 44 13 0 15 -26 15
-175 0 -149 -2 -175 -15 -175 -11 0 -15 13 -15 53 0 104 -71 201 -185 254 -53
25 -72 28 -155 28 -92 0 -102 -3 -183 -43 -5 -2 -7 6 -5 19 2 20 12 26 53 36
73 16 184 15 246 -3z m479 -754 c0 -6 -30 -10 -70 -10 l-70 0 0 -260 c0 -252
-11 -343 -23 -180 -9 141 -50 165 -134 81 -110 -110 -204 -151 -349 -151 -79
0 -214 25 -214 39 1 3 15 15 32 26 l32 20 59 -29 c83 -42 186 -43 272 -3 70
33 131 87 153 137 10 24 17 80 20 178 l5 142 -72 0 c-41 0 -71 4 -71 10 0 6
78 10 215 10 137 0 215 -4 215 -10z"/>
<path d="M349 903 c-79 -86 -120 -220 -100 -328 31 -167 135 -278 302 -321
144 -37 297 20 357 131 10 19 16 55 17 95 0 53 -5 73 -27 112 -38 64 -112 126
-240 200 -60 35 -145 84 -188 109 l-79 47 -42 -45z m160 -68 c54 -30 103 -55
109 -55 7 0 12 -4 12 -9 0 -5 8 -12 18 -16 22 -6 110 -70 165 -117 83 -73 101
-190 41 -266 -96 -121 -304 -124 -447 -8 -77 63 -121 153 -125 260 -3 70 0 89
23 141 32 73 71 125 92 125 8 0 59 -25 112 -55z"/>
</g>
</svg>
